<?xml version="1.0" standalone="no"?>
<!DOCTYPE svg PUBLIC "-//W3C//DTD SVG 20010904//EN"
 "http://www.w3.org/TR/2001/REC-SVG-20010904/DTD/svg10.dtd">
<svg version="1.0" xmlns="http://www.w3.org/2000/svg"
 width="256.000000pt" height="256.000000pt" viewBox="0 0 256.000000 256.000000"
 preserveAspectRatio="xMidYMid meet">

<g transform="translate(0.000000,256.000000) scale(0.100000,-0.100000)"
fill="#C73A52" stroke="none">
<path d="M0 1280 l0 -1280 1280 0 1280 0 0 1280 0 1280 -1280 0 -1280 0 0
-1280z m1766 926 c177 -9 276 -101 290 -269 3 -34 9 -138 13 -232 7 -144 11
-176 29 -212 29 -55 62 -80 128 -93 l54 -11 0 -120 0 -119 -32 0 c-50 -1 -112
-33 -136 -71 -33 -54 -42 -110 -51 -324 -5 -110 -15 -217 -21 -239 -16 -52
-80 -119 -139 -145 -54 -23 -156 -40 -238 -41 l-53 0 0 119 0 118 60 6 c68 7
114 27 125 54 4 10 11 99 15 198 5 99 14 202 20 230 16 70 58 142 107 182 l42
35 -58 57 c-84 82 -100 136 -111 386 -5 105 -12 198 -15 208 -11 27 -54 45
-115 48 -30 1 -59 4 -65 6 -6 2 -9 49 -7 122 l3 119 37 -4 c20 -2 74 -5 118
-8z m-808 -113 l-3 -117 -65 -4 c-109 -5 -130 -31 -130 -165 0 -131 -17 -298
-35 -352 -22 -62 -57 -113 -106 -150 l-38 -28 45 -40 c93 -82 119 -164 130
-422 4 -88 10 -170 15 -182 13 -35 51 -53 123 -60 l66 -6 0 -118 0 -119 -52 0
c-161 1 -281 40 -338 108 -49 59 -60 115 -70 342 -5 113 -14 222 -20 243 -22
73 -93 127 -169 127 -20 0 -21 4 -21 120 l0 120 28 5 c15 4 38 8 51 11 42 9
70 35 97 91 26 52 28 65 35 266 9 275 25 324 122 390 61 41 120 56 235 56
l103 1 -3 -117z"/>
</g>
</svg>
