<svg version="1.1" id="Layer_1" xmlns="http://www.w3.org/2000/svg" x="0px" y="0px"
     width="100%" viewBox="0 0 512 512" enable-background="new 0 0 512 512" xml:space="preserve">
<path fill="#C73A52" opacity="1.000000" stroke="none"
      d="
M235.000000,1.000000 
	C249.354233,1.000000 263.708466,1.000000 278.739258,1.372489 
	C287.367432,2.812356 295.330933,3.798215 303.268280,4.962474 
	C326.567535,8.380030 348.542542,16.106882 369.596985,26.346554 
	C389.545288,36.048279 407.922424,48.202599 424.623077,62.966000 
	C440.527222,77.025269 454.904633,92.364952 467.164154,109.683151 
	C479.789642,127.518280 489.957397,146.712585 497.498505,167.177612 
	C504.107178,185.112228 509.019287,203.554489 511.041565,222.665100 
	C511.479034,226.799530 512.336182,230.889526 513.000000,235.000000 
	C513.000000,249.354233 513.000000,263.708466 512.627502,278.739288 
	C511.187653,287.367401 510.201813,295.330902 509.037537,303.268188 
	C505.619934,326.567444 497.893158,348.542419 487.653503,369.596893 
	C477.951782,389.545227 465.797424,407.922333 451.034088,424.623077
	C436.974854,440.527313 421.635010,454.904510 404.316833,467.164093
	C386.481750,479.789612 367.287415,489.957306 346.822418,497.498474 
	C328.887787,504.107117 310.445496,509.019318 291.334900,511.041626 
	C287.200470,511.479095 283.110474,512.336182 279.000000,513.000000 
	C264.645782,513.000000 250.291550,513.000000 235.260727,512.627563 
	C226.632523,511.187653 218.668945,510.201782 210.731537,509.037506 
	C187.432312,505.619873 165.458771,497.890289 144.402496,487.654205 
	C124.451614,477.955444 106.082748,465.787781 89.378113,451.032593 
	C73.468239,436.979492 59.095348,421.634949 46.835800,404.316772 
	C34.210320,386.481659 24.042629,367.287354 16.501528,346.822357 
	C9.892839,328.887726 4.980696,310.445465 2.958409,291.334869 
	C2.520907,287.200470 1.663823,283.110443 1.000001,279.000000 
	C1.000000,264.645782 1.000000,250.291550 1.372481,235.260742 
	C2.812334,226.632690 3.798217,218.669281 4.962440,210.732025 
	C8.379935,187.432724 16.106777,165.457733 26.346430,144.403244 
	C36.048130,124.454910 48.202454,106.077736 62.965855,89.377052 
	C77.025139,73.472870 92.364876,59.095501 109.683075,46.835934 
	C127.518219,34.210426 146.712555,24.042688 167.177567,16.501558 
	C185.112213,9.892842 203.554489,4.980715 222.665115,2.958409 
	C226.799515,2.520901 230.889542,1.663821 235.000000,1.000000 
M110.029831,288.413422 
	C138.299088,301.548706 166.568344,314.683960 195.624039,328.184662 
	C195.624039,319.869690 195.411209,312.570251 195.713959,305.292267 
	C195.864975,301.662018 194.455002,300.084808 191.262741,298.703003 
	C163.178665,286.546509 135.169357,274.217255 107.144234,261.924713 
	C105.422142,261.169342 103.753700,260.291687 101.220917,259.064087 
	C104.078430,257.763794 105.997322,256.861633 107.938942,256.011414 
	C135.667511,243.869034 163.405655,231.748413 191.113205,219.558289 
	C192.696762,218.861588 195.255264,217.659805 195.297409,216.610306 
	C195.639832,208.081268 195.489853,199.532440 195.489853,190.359756 
	C192.879883,191.495483 191.206543,192.182159 189.567612,192.942963 
	C155.469986,208.770798 121.368370,224.590118 87.289833,240.458984 
	C81.880203,242.978027 74.505898,244.428589 71.806793,248.734390 
	C69.091072,253.066666 71.261658,260.355377 70.924911,266.327972 
	C70.741035,269.589081 72.155098,270.943420 74.920624,272.183685 
	C86.454292,277.356201 97.879974,282.769501 110.029831,288.413422 
M367.719788,241.759186 
	C380.881927,247.397049 394.044037,253.034912 408.197296,259.097290 
	C405.244781,260.431671 403.597778,261.209717 401.924774,261.927094 
	C373.194702,274.246765 344.450317,286.533356 315.758392,298.941132 
	C314.163147,299.630951 311.866852,301.260193 311.811646,302.535095 
	C311.454254,310.792297 311.628448,319.072540 311.628448,327.880920 
	C313.819000,326.993866 315.334229,326.448181 316.793152,325.779572 
	C350.655945,310.260620 384.517029,294.737915 418.366150,279.189087 
	C424.097046,276.556519 432.014709,275.215485 434.854126,270.712646 
	C437.816833,266.014221 435.666107,258.200592 436.133514,251.776718 
	C436.395142,248.180817 434.949463,246.573792 431.809845,245.145935 
	C393.360626,227.659927 354.976471,210.030762 316.567505,192.456131 
	C315.162720,191.813370 313.675903,191.349915 311.600830,190.566315 
	C311.600830,198.811157 311.734650,206.276840 311.534698,213.733597 
	C311.455292,216.694656 312.493958,218.097641 315.217133,219.241821 
	C332.539062,226.519974 349.779053,233.993073 367.719788,241.759186 
M267.957275,158.419250 
	C250.281464,218.284348 232.605637,278.149445 214.763596,338.577515 
	C221.993530,338.577515 228.330551,338.268341 234.620682,338.678467 
	C239.380692,338.988861 241.473495,337.494293 242.866348,332.720551 
	C260.007477,273.972626 277.402313,215.298752 294.718628,156.601913 
	C295.262848,154.757111 295.667603,152.871185 296.295868,150.374603 
	C289.804504,150.374603 284.009125,150.374390 278.213776,150.374649 
	C270.411072,150.374985 270.411072,150.375137 267.957275,158.419250 
z"/>
</svg>